<?xml version="1.0" standalone="no"?>
<!DOCTYPE svg PUBLIC "-//W3C//DTD SVG 20010904//EN"
 "http://www.w3.org/TR/2001/REC-SVG-20010904/DTD/svg10.dtd">
<svg version="1.0" xmlns="http://www.w3.org/2000/svg"
 width="200.000000pt" height="200.000000pt" viewBox="0 0 200.000000 200.000000"
 preserveAspectRatio="xMidYMid meet">

<g transform="translate(0.000000,200.000000) scale(0.100000,-0.100000)"
fill="#000000" stroke="none">
<path d="M520 750 c0 -93 3 -121 13 -118 7 3 13 26 15 56 2 36 7 52 17 52 10
0 15 -16 17 -52 2 -39 7 -53 18 -53 12 0 15 19 15 115 0 96 -3 115 -15 115
-11 0 -16 -13 -18 -47 -4 -66 -30 -66 -34 -1 -2 26 -9 48 -15 51 -10 3 -13
-25 -13 -118z"/>
<path d="M656 854 c-25 -24 -23 -185 2 -207 23 -21 46 -22 66 -1 25 24 23 185
-2 207 -23 21 -46 22 -66 1z m49 -105 c0 -68 -3 -84 -15 -84 -12 0 -16 16 -18
74 -3 82 2 105 21 98 8 -2 12 -29 12 -88z"/>
<path d="M777 852 c-24 -26 -22 -35 19 -109 25 -44 33 -68 26 -75 -13 -13 -32
-2 -32 18 0 8 -7 14 -15 14 -21 0 -19 -33 3 -53 24 -22 45 -21 65 1 24 26 22
39 -19 105 -33 54 -39 87 -14 87 6 0 13 -7 16 -15 8 -19 34 -20 34 -2 0 18
-32 47 -52 47 -8 0 -22 -8 -31 -18z"/>
<path d="M1000 750 c0 -100 3 -120 15 -120 13 0 15 20 15 120 0 100 -2 120
-15 120 -12 0 -15 -20 -15 -120z"/>
<path d="M1289 849 c-24 -24 -20 -43 22 -110 16 -25 29 -53 29 -62 0 -24 -27
-21 -33 4 -3 12 -11 19 -18 17 -22 -7 -21 -26 1 -48 28 -28 62 -23 75 13 10
30 10 28 -43 117 -15 25 -18 40 -11 50 8 13 11 13 23 -2 16 -22 36 -23 36 -4
0 19 -27 46 -46 46 -8 0 -23 -9 -35 -21z"/>
<path d="M1412 854 c-20 -14 -22 -24 -22 -103 0 -72 3 -91 18 -104 10 -10 25
-17 34 -17 19 0 48 32 48 53 0 24 -27 21 -33 -4 -3 -12 -12 -19 -19 -17 -9 3
-13 28 -13 88 0 60 4 85 13 88 7 2 16 -5 19 -17 6 -25 21 -27 30 -4 4 10 -2
23 -16 35 -28 22 -31 22 -59 2z"/>
<path d="M880 745 c0 -96 3 -115 15 -115 11 0 15 12 15 49 0 46 2 49 29 54 25
5 31 13 37 42 4 21 2 47 -5 61 -9 20 -18 24 -51 24 l-40 0 0 -115z m65 66 c7
-24 -4 -51 -21 -51 -9 0 -14 12 -14 35 0 38 24 50 35 16z"/>
<path d="M1060 746 c0 -95 3 -116 14 -116 11 0 16 14 18 48 l3 47 14 -44 c14
-39 34 -61 47 -48 3 2 -3 23 -12 46 -13 34 -14 47 -5 65 7 12 11 42 9 67 l-3
44 -42 3 -43 3 0 -115z m60 49 c0 -24 -5 -35 -15 -35 -10 0 -15 11 -15 35 0
24 5 35 15 35 10 0 15 -11 15 -35z"/>
<path d="M1180 744 l0 -115 37 3 c42 3 59 28 19 28 -24 0 -26 4 -26 40 0 33 3
40 20 40 11 0 20 7 20 15 0 8 -9 15 -20 15 -16 0 -20 7 -20 35 0 31 3 35 25
35 14 0 25 5 25 10 0 6 -18 10 -40 10 l-40 0 0 -116z"/>
</g>
</svg>
